<svg width="40" height="40" viewBox="0 0 40 40" fill="none" xmlns="http://www.w3.org/2000/svg">
<path d="M27.2673 23.3335C27.4007 22.2335 27.5007 21.1335 27.5007 20.0002C27.5007 18.8668 27.4007 17.7668 27.2673 16.6668H32.9007C33.1673 17.7335 33.334 18.8502 33.334 20.0002C33.334 21.1502 33.1673 22.2668 32.9007 23.3335M24.3173 32.6002C25.3173 30.7502 26.084 28.7502 26.6173 26.6668H31.534C29.9193 29.4473 27.3575 31.5535 24.3173 32.6002ZM23.9007 23.3335H16.1007C15.934 22.2335 15.834 21.1335 15.834 20.0002C15.834 18.8668 15.934 17.7502 16.1007 16.6668H23.9007C24.0507 17.7502 24.1673 18.8668 24.1673 20.0002C24.1673 21.1335 24.0507 22.2335 23.9007 23.3335ZM20.0007 33.2668C18.6173 31.2668 17.5007 29.0502 16.8173 26.6668H23.184C22.5007 29.0502 21.384 31.2668 20.0007 33.2668ZM13.334 13.3335H8.46732C10.0654 10.5455 12.6253 8.43597 15.6673 7.40016C14.6673 9.25016 13.9173 11.2502 13.334 13.3335ZM8.46732 26.6668H13.334C13.9173 28.7502 14.6673 30.7502 15.6673 32.6002C12.6317 31.5529 10.0754 29.4464 8.46732 26.6668ZM7.10065 23.3335C6.83398 22.2668 6.66732 21.1502 6.66732 20.0002C6.66732 18.8502 6.83398 17.7335 7.10065 16.6668H12.734C12.6007 17.7668 12.5007 18.8668 12.5007 20.0002C12.5007 21.1335 12.6007 22.2335 12.734 23.3335M20.0007 6.71683C21.384 8.71683 22.5007 10.9502 23.184 13.3335H16.8173C17.5007 10.9502 18.6173 8.71683 20.0007 6.71683ZM31.534 13.3335H26.6173C26.0957 11.2693 25.3233 9.27666 24.3173 7.40016C27.384 8.45016 29.934 10.5668 31.534 13.3335ZM20.0007 3.3335C10.784 3.3335 3.33398 10.8335 3.33398 20.0002C3.33398 24.4204 5.08993 28.6597 8.21554 31.7853C9.76318 33.3329 11.6005 34.5606 13.6226 35.3982C15.6447 36.2357 17.812 36.6668 20.0007 36.6668C24.4209 36.6668 28.6602 34.9109 31.7858 31.7853C34.9114 28.6597 36.6673 24.4204 36.6673 20.0002C36.6673 17.8115 36.2362 15.6442 35.3986 13.6221C34.5611 11.6 33.3334 9.76269 31.7858 8.21505C30.2381 6.66741 28.4008 5.43975 26.3787 4.60217C24.3566 3.76459 22.1894 3.3335 20.0007 3.3335Z" fill="#165069"/>
</svg>
